# xmcd
#
# Track frame offsets:
#	150
#	15027
#	31870
#	44915
#	58420
#	82517
#	95792
#	110717
#	124408
#	146381
#	157383
#	169758
#	182833
#	194055
#	206471
#	220102
#	232544
#	242659
#	253515
#	266195
#
# Disc length: 3739 seconds
#
# Revision: 0
# Processed by: cddbd v1.5.1PL2 Copyright (c) Steve Scherf et al.
# Submitted via: dBpowerAMP V4.0
#
DISCID=200e9914
DTITLE=Trio Los Panchos - Baladas de Amor
DYEAR=2004
DGENRE=Ballad
TTITLE0=Por el Amor de Una Mujer
TTITLE1=Y Cómo Es Él
TTITLE2=Algo Contigo
TTITLE3=Esta Cobardía
TTITLE4=Detalles
TTITLE5=Momentos
TTITLE6=La Distancia
TTITLE7=Yo Soy Aquel
TTITLE8=Voy a Perder la Cabeza Por Tu Amor
TTITLE9=Esta Tarde VI Llover
TTITLE10=Nosotros
TTITLE11=Adoro
TTITLE12=No
TTITLE13=Contigo Aprendí
TTITLE14=Cuando Estoy Contigo
TTITLE15=Voy a Apagar la Luz
TTITLE16=Cosas Imposibles
TTITLE17=Mía
TTITLE18=Llévatela
TTITLE19=Y...
EXTD=
EXTT0=
EXTT1=
EXTT2=
EXTT3=
EXTT4=
EXTT5=
EXTT6=
EXTT7=
EXTT8=
EXTT9=
EXTT10=
EXTT11=
EXTT12=
EXTT13=
EXTT14=
EXTT15=
EXTT16=
EXTT17=
EXTT18=
EXTT19=
PLAYORDER=
